# xmcd CD database file
#
# Track frame offsets:
#	150
#	18360
#	30740
#	52794
#	67704
#	92631
#	109114
#	124417
#	138571
#	150790
#	176074
#	189425
#	207593
#
# Disc length: 2870 seconds
#
# Revision: 0
# Processed by: cddbd v1.5.2PL0 Copyright (c) Steve Scherf et al.
# Submitted via: Feurio! 1.67 - http://www.feurio.com
#
DISCID=a60b340d
DTITLE=Memphis Slim and Willie Dixon - Aux Trois Mailletz
DYEAR=1900
DGENRE=Blues
TTITLE0=Memphis Slim - Rock Rolling the House
TTITLE1=Memphis Slim and Willie Dixon - Baby Please Come Home
TTITLE2=Memphis Slim and Willie Dixon - How Come You Do Me Like You Do?
TTITLE3=Memphis Slim and Willie Dixon - The Way She Loves a Man
TTITLE4=Memphis Slim and Willie Dixon - New Way to Love
TTITLE5=Memphis Slim and Willie Dixon - African Hunch With a Boogie Beat
TTITLE6=Memphis Slim and Willie Dixon - Shame Pretty Girls
TTITLE7=Memphis Slim - Baby-Baby-Baby
TTITLE8=Memphis Slim and Willie Dixon - Do de Do
TTITLE9=Memphis Slim and Willie Dixon - Cold Blooded
TTITLE10=Memphis Slim and Willie Dixon - Just You and I
TTITLE11=Memphis Slim and Willie Dixon - Pigalle Love
TTITLE12=Memphis Slim and Willie Dixon - All by Myself
EXTD=
EXTT0=
EXTT1=
EXTT2=
EXTT3=
EXTT4=
EXTT5=
EXTT6=
EXTT7=
EXTT8=
EXTT9=
EXTT10=
EXTT11=
EXTT12=
PLAYORDER=
